<svg width="200" height="75" viewBox="0 0 200 75" fill="none" xmlns="http://www.w3.org/2000/svg">
<path d="M96.2 20.65H110.05C114.5 20.65 117.8 21.7 119.95 23.8C122.95 26.6 124.55 31.55 124.55 37.35C124.55 43 122.95 48 119.95 50.8C117.8 52.95 114.5 54 110.05 54H96.2V20.65ZM109.1 48.3C114.7 48.3 117.5 44.65 117.5 37.3C117.5 29.75 114.75 26.2 109.1 26.2H103V48.3H109.1ZM138.428 28.3C146.428 28.3 151.228 33.3 151.228 41.7C151.228 49.95 146.428 55.05 138.428 55.05C130.428 55.05 125.628 49.95 125.628 41.7C125.628 33.3 130.428 28.3 138.428 28.3ZM138.478 33.85C134.678 33.85 132.578 36.65 132.578 41.5C132.578 46.95 134.528 49.65 138.478 49.65C142.278 49.65 144.328 46.9 144.328 41.75C144.328 36.6 142.278 33.85 138.478 33.85ZM152.986 20.65H159.686V54H152.986V20.65ZM161.07 29.25H164.42V22.3H171.02V29.25H175.17V33.9H171.12V46.5C171.12 48.15 171.27 48.8 171.82 49.05C172.37 49.3 173.12 49.4 174.12 49.4L175.17 49.35V54.35H170.12C166.52 54.35 164.42 52.25 164.42 48.65V33.9H161.07V29.25Z" fill="white"/>
<rect x="23" y="12" width="50" height="50" rx="10" fill="#3363E3"/>
<path d="M57.6072 28L60.4357 30.8284L44.8793 46.3848L42.0509 43.5563L57.6072 28Z" fill="white"/>
<path d="M35 36.505L37.8284 33.6766L44.8995 40.7476L42.0711 43.5761L35 36.505Z" fill="white"/>
</svg>
