<svg width="200" height="75" viewBox="0 0 200 75" fill="none" xmlns="http://www.w3.org/2000/svg">
<path d="M96.6824 20.65H110.532C114.982 20.65 118.282 21.7 120.432 23.8C123.432 26.6 125.032 31.55 125.032 37.35C125.032 43 123.432 48 120.432 50.8C118.282 52.95 114.982 54 110.532 54H96.6824V20.65ZM109.582 48.3C115.182 48.3 117.982 44.65 117.982 37.3C117.982 29.75 115.232 26.2 109.582 26.2H103.482V48.3H109.582ZM138.911 28.3C146.911 28.3 151.711 33.3 151.711 41.7C151.711 49.95 146.911 55.05 138.911 55.05C130.911 55.05 126.111 49.95 126.111 41.7C126.111 33.3 130.911 28.3 138.911 28.3ZM138.961 33.85C135.161 33.85 133.061 36.65 133.061 41.5C133.061 46.95 135.011 49.65 138.961 49.65C142.761 49.65 144.811 46.9 144.811 41.75C144.811 36.6 142.761 33.85 138.961 33.85ZM153.468 20.65H160.168V54H153.468V20.65ZM161.553 29.25H164.903V22.3H171.503V29.25H175.653V33.9H171.603V46.5C171.603 48.15 171.753 48.8 172.303 49.05C172.853 49.3 173.603 49.4 174.603 49.4L175.653 49.35V54.35H170.603C167.003 54.35 164.903 52.25 164.903 48.65V33.9H161.553V29.25Z" fill="#191919"/>
<rect x="23" y="12" width="50" height="50" rx="10" fill="#3363E3"/>
<path d="M57.6072 28L60.4357 30.8284L44.8793 46.3848L42.0509 43.5563L57.6072 28Z" fill="white"/>
<path d="M35 36.505L37.8284 33.6766L44.8995 40.7476L42.0711 43.5761L35 36.505Z" fill="white"/>
</svg>
